<?xml version="1.0" encoding="UTF-8" standalone="no"?>
<svg
   class="img-fluid"
   id="outputsvg"
   viewBox="0 0 3324.9421 3893.2876"
   version="1.1"
   sodipodi:docname="logo-no-text.svg"
   inkscape:export-filename="logo-tiny.png"
   inkscape:export-xdpi="1"
   inkscape:export-ydpi="1"
   width="3324.9421"
   height="3893.2876"
   inkscape:version="1.4.3 (0d15f75042, 2025-12-25)"
   xmlns:inkscape="http://www.inkscape.org/namespaces/inkscape"
   xmlns:sodipodi="http://sodipodi.sourceforge.net/DTD/sodipodi-0.dtd"
   xmlns="http://www.w3.org/2000/svg"
   xmlns:svg="http://www.w3.org/2000/svg">
  <defs
     id="defs1" />
  <sodipodi:namedview
     id="namedview1"
     pagecolor="#ffffff"
     bordercolor="#000000"
     borderopacity="0.25"
     inkscape:showpageshadow="2"
     inkscape:pageopacity="0.0"
     inkscape:pagecheckerboard="0"
     inkscape:deskcolor="#d1d1d1"
     inkscape:clip-to-page="false"
     inkscape:zoom="0.1798917"
     inkscape:cx="3149.1169"
     inkscape:cy="2648.8159"
     inkscape:window-width="3440"
     inkscape:window-height="1364"
     inkscape:window-x="0"
     inkscape:window-y="0"
     inkscape:window-maximized="1"
     inkscape:current-layer="g1" />
  <g
     id="l4uXNZguwMPU7KMCE16gUZS"
     fill="currentColor"
     inkscape:export-filename="l4uXNZguwMPU7KMCE16gUZS.png"
     inkscape:export-xdpi="96"
     inkscape:export-ydpi="96"
     transform="translate(-391.22467,-434.80385)">
    <g
       id="g1">
      <path
         id="peC7XPgCu"
         d="m 1024,4258 c 80,-175 299,-633 414,-868 171,-348 301,-634 293,-642 -5,-5 -209,1 -623,20 -87,4 -158,4 -158,1 0,-3 57,-115 127,-250 69,-134 135,-264 146,-289 10,-25 90,-191 177,-370 211,-433 312,-662 297,-672 -7,-4 -235,-8 -508,-8 -481,0 -497,-1 -560,-22 -52,-17 -76,-33 -131,-88 -59,-58 -69,-75 -88,-139 -58,-189 22,-382 190,-460 54,-25 61,-26 335,-31 154,-3 777,-6 1385,-5 h 1105 l 67,32 c 245,116 301,427 109,606 -29,27 -77,60 -109,75 l -57,27 -459,2 -460,2 -101,223 c -146,319 -255,571 -255,586 0,10 11,12 43,8 23,-3 132,-10 242,-16 554,-27 657,-31 661,-27 6,6 -106,144 -241,297 -55,63 -124,144 -154,180 -29,36 -97,112 -150,170 -53,58 -153,168 -221,245 -69,77 -168,185 -220,240 -53,55 -138,150 -190,210 -52,61 -140,160 -195,220 -55,61 -156,173 -225,250 -297,335 -501,559 -511,563 -5,2 7,-29 25,-70 z m 649,-819 c 12,-16 16,-31 11,-55 -7,-40 -44,8 341,-440 165,-192 350,-409 410,-481 109,-132 110,-132 153,-133 55,0 82,-26 82,-79 0,-70 -69,-103 -124,-60 -23,18 -26,28 -25,64 2,40 -2,49 -71,132 -176,210 -522,614 -694,810 -96,109 -101,113 -140,113 -71,0 -109,67 -75,131 22,43 96,41 132,-2 z m -196,-951 c 29,-33 33,-51 16,-85 -14,-31 -13,-33 79,-199 52,-93 116,-212 142,-264 27,-52 75,-140 106,-195 32,-55 76,-136 98,-180 22,-44 47,-89 55,-99 14,-19 15,-19 51,4 32,19 40,21 51,9 7,-8 51,-97 98,-199 47,-102 101,-220 121,-262 l 37,-78 h 484 484 l 20,29 c 38,53 107,49 131,-9 16,-40 3,-73 -40,-95 -29,-15 -33,-15 -58,1 -15,9 -31,23 -35,31 -7,12 -90,14 -508,12 -275,-1 -502,1 -505,4 -6,6 -167,344 -206,432 -16,39 -34,74 -38,78 -4,5 -26,-2 -48,-14 -22,-13 -43,-21 -45,-19 -2,3 -26,46 -52,95 -26,50 -83,153 -125,230 -87,158 -269,491 -314,577 -27,50 -35,57 -68,62 -44,7 -68,37 -68,83 0,45 30,73 78,73 27,0 44,-7 59,-22 z m 460,-1280 c 9,-15 123,-269 123,-274 0,-2 -189,-4 -421,-4 h -421 l -28,-30 c -31,-34 -64,-38 -98,-14 -51,35 -44,106 13,130 40,16 69,9 85,-22 l 13,-24 h 399 c 219,0 398,2 398,5 0,3 -25,55 -55,116 -31,60 -53,114 -50,119 9,14 32,12 42,-2 z M 940.70458,816.24643 c 0,-69.25358 -56.14112,-125.3947 -125.3947,-125.3947 -69.25358,0 -125.3947,56.14112 -125.3947,125.3947 0,69.25359 56.14112,125.39471 125.3947,125.39471 69.25358,0 125.3947,-56.14112 125.3947,-125.39471 z M 880,925 m 383,-185 35,-30 h 930 931 l 21,30 c 43,60 130,29 130,-45 0,-43 -37,-85 -74,-85 -23,0 -66,34 -66,52 0,4 -424,8 -942,8 h -943 l -17,-30 c -14,-25 -23,-30 -57,-30 -73,0 -108,84 -56,135 32,33 67,31 108,-5 z" />
      <path
         id="pEBlVcog0"
         d="m 1593,3430 c -17,-7 -23,-18 -23,-40 0,-35 19,-47 48,-31 26,14 34,48 15,66 -8,8 -15,15 -16,14 -1,0 -12,-4 -24,-9 z" />
      <path
         id="p7ICxoxmm"
         d="m 2567,2283 c -12,-12 -7,-50 8,-63 12,-10 20,-9 40,4 27,18 32,35 13,54 -13,13 -50,16 -61,5 z" />
      <path
         id="phO3P4ulv"
         d="m 3353,944 c -8,-20 8,-48 30,-52 18,-4 41,33 33,54 -7,19 -55,18 -63,-2 z" />
      <path
         id="p1C3Qs7IAD"
         d="m 1112,971 c -8,-4 -12,-19 -10,-32 2,-19 9,-24 33,-24 33,0 45,25 25,50 -14,17 -29,19 -48,6 z" />
      <path
         id="pus5oGo0a"
         d="m 3277.2869,696.57932 c 0,19.00296 -15.4049,34.4079 -34.4079,34.4079 -19.003,0 -34.4079,-15.40494 -34.4079,-34.4079 0,-19.00296 15.4049,-34.4079 34.4079,-34.4079 19.003,0 34.4079,15.40494 34.4079,34.4079 z M 3214,716" />
      <path
         id="p51VSftN3"
         d="m 2130,3222 c 1,-4 29,-37 63,-73 50,-54 73,-70 117,-84 193,-62 353,-196 469,-393 43,-73 85,-189 96,-265 6,-40 18,-59 68,-115 33,-37 65,-69 70,-71 15,-6 -1,172 -24,264 -24,94 -90,239 -153,333 -115,174 -337,331 -540,381 -87,22 -166,33 -166,23 z" />
      <path
         id="pRcJweobI"
         d="m 1409,3036 c -67,-45 -189,-152 -189,-166 0,-4 34,-10 76,-13 l 76,-6 62,47 c 34,26 72,54 84,62 l 23,15 -22,53 c -12,28 -27,52 -33,52 -6,0 -41,-20 -77,-44 z" />
      <path
         id="p2pYqlRjm"
         d="m 1007,2414 c -3,-5 -11,-47 -17,-93 -44,-299 100,-652 347,-853 68,-56 180,-124 188,-116 3,3 -6,27 -19,54 -13,27 -29,67 -37,89 -8,24 -37,62 -70,95 -167,163 -268,367 -285,572 -6,77 -12,95 -54,173 -26,48 -50,83 -53,79 z" />
      <path
         id="pxtLbpzRR"
         d="m 2810,1829 c -56,-109 -150,-218 -261,-300 l -68,-50 21,-47 c 11,-26 24,-51 29,-56 15,-17 176,101 241,177 89,103 201,288 184,304 -2,3 -31,7 -64,10 l -60,6 z" />
    </g>
  </g>
</svg>
