<svg class="img-fluid" id="outputsvg" xmlns="http://www.w3.org/2000/svg" style="transform: matrix(1, 0, 0, 1, -10, 15); transform-origin: 50% 50% 0px; cursor: move; max-height: 486.58px; transition: none;" viewBox="0 0 10580 4540"><g id="l4uXNZguwMPU7KMCE16gUZS" fill="currentColor" style="transform: none;"><g style="transform: none;"><path id="peC7XPgCu" d="M 1024 4258 c 80 -175 299 -633 414 -868 171 -348 301 -634 293 -642 -5 -5 -209 1 -623 20 -87 4 -158 4 -158 1 0 -3 57 -115 127 -250 69 -134 135 -264 146 -289 10 -25 90 -191 177 -370 211 -433 312 -662 297 -672 -7 -4 -235 -8 -508 -8 -481 0 -497 -1 -560 -22 -52 -17 -76 -33 -131 -88 -59 -58 -69 -75 -88 -139 -58 -189 22 -382 190 -460 54 -25 61 -26 335 -31 154 -3 777 -6 1385 -5 l 1105 0 67 32 c 245 116 301 427 109 606 -29 27 -77 60 -109 75 l -57 27 -459 2 -460 2 -101 223 c -146 319 -255 571 -255 586 0 10 11 12 43 8 23 -3 132 -10 242 -16 554 -27 657 -31 661 -27 6 6 -106 144 -241 297 -55 63 -124 144 -154 180 -29 36 -97 112 -150 170 -53 58 -153 168 -221 245 -69 77 -168 185 -220 240 -53 55 -138 150 -190 210 -52 61 -140 160 -195 220 -55 61 -156 173 -225 250 -297 335 -501 559 -511 563 -5 2 7 -29 25 -70 z  m 649 -819 c 12 -16 16 -31 11 -55 -7 -40 -44 8 341 -440 165 -192 350 -409 410 -481 109 -132 110 -132 153 -133 55 0 82 -26 82 -79 0 -70 -69 -103 -124 -60 -23 18 -26 28 -25 64 2 40 -2 49 -71 132 -176 210 -522 614 -694 810 -96 109 -101 113 -140 113 -71 0 -109 67 -75 131 22 43 96 41 132 -2 z  m -196 -951 c 29 -33 33 -51 16 -85 -14 -31 -13 -33 79 -199 52 -93 116 -212 142 -264 27 -52 75 -140 106 -195 32 -55 76 -136 98 -180 22 -44 47 -89 55 -99 14 -19 15 -19 51 4 32 19 40 21 51 9 7 -8 51 -97 98 -199 47 -102 101 -220 121 -262 l 37 -78 484 0 484 0 20 29 c 38 53 107 49 131 -9 16 -40 3 -73 -40 -95 -29 -15 -33 -15 -58 1 -15 9 -31 23 -35 31 -7 12 -90 14 -508 12 -275 -1 -502 1 -505 4 -6 6 -167 344 -206 432 -16 39 -34 74 -38 78 -4 5 -26 -2 -48 -14 -22 -13 -43 -21 -45 -19 -2 3 -26 46 -52 95 -26 50 -83 153 -125 230 -87 158 -269 491 -314 577 -27 50 -35 57 -68 62 -44 7 -68 37 -68 83 0 45 30 73 78 73 27 0 44 -7 59 -22 z  m 460 -1280 c 9 -15 123 -269 123 -274 0 -2 -189 -4 -421 -4 l -421 0 -28 -30 c -31 -34 -64 -38 -98 -14 -51 35 -44 106 13 130 40 16 69 9 85 -22 l 13 -24 399 0 c 219 0 398 2 398 5 0 3 -25 55 -55 116 -31 60 -53 114 -50 119 9 14 32 12 42 -2 z  M940.7045789248725 816.2464348179177 C 940.7045789248725 746.9928532797559 884.5634586188254 690.8517329737087 815.3098770806636 690.8517329737087 746.05629554250174 690.8517329737087 689.91517523645456 746.9928532797559 689.91517523645456 816.2464348179177 689.91517523645456 885.5000163560795 746.05629554250174 941.6411366621267 815.3098770806636 941.6411366621267 884.5634586188254 941.6411366621267 940.7045789248725 885.5000163560795 940.7045789248725 816.2464348179177 Z M880.0 925.0  m 383 -185 l 35 -30 930 0 931 0 21 30 c 43 60 130 29 130 -45 0 -43 -37 -85 -74 -85 -23 0 -66 34 -66 52 0 4 -424 8 -942 8 l -943 0 -17 -30 c -14 -25 -23 -30 -57 -30 -73 0 -108 84 -56 135 32 33 67 31 108 -5 z "></path><path id="pEBlVcog0" d="M 1593 3430 c -17 -7 -23 -18 -23 -40 0 -35 19 -47 48 -31 26 14 34 48 15 66 -8 8 -15 15 -16 14 -1 0 -12 -4 -24 -9 z "></path><path id="p7ICxoxmm" d="M 2567 2283 c -12 -12 -7 -50 8 -63 12 -10 20 -9 40 4 27 18 32 35 13 54 -13 13 -50 16 -61 5 z "></path><path id="phO3P4ulv" d="M 3353 944 c -8 -20 8 -48 30 -52 18 -4 41 33 33 54 -7 19 -55 18 -63 -2 z "></path><path id="p1C3Qs7IAD" d="M 1112 971 c -8 -4 -12 -19 -10 -32 2 -19 9 -24 33 -24 33 0 45 25 25 50 -14 17 -29 19 -48 6 z "></path><path id="pus5oGo0a" d="M3277.2869002242364 696.57931685477445 C 3277.2869002242364 715.5822753409909 3261.881958633488 730.9872169317391 3242.8790001472717 730.9872169317391 3223.8760416610553 730.9872169317391 3208.471100070307 715.5822753409909 3208.471100070307 696.57931685477445 3208.471100070307 677.576358368558 3223.8760416610553 662.1714167778098 3242.8790001472717 662.1714167778098 3261.881958633488 662.1714167778098 3277.2869002242364 677.576358368558 3277.2869002242364 696.57931685477445 Z M3214.0 716.0 "></path><path id="p51VSftN3" d="M 2130 3222 c 1 -4 29 -37 63 -73 50 -54 73 -70 117 -84 193 -62 353 -196 469 -393 43 -73 85 -189 96 -265 6 -40 18 -59 68 -115 33 -37 65 -69 70 -71 15 -6 -1 172 -24 264 -24 94 -90 239 -153 333 -115 174 -337 331 -540 381 -87 22 -166 33 -166 23 z "></path><path id="p1GCiFKZgH" d="M 4300 3220 l -55 -5 -1 -55 c -1 -30 2 -65 7 -77 l 9 -23 294 0 294 0 26 -31 c 14 -17 26 -41 26 -54 0 -32 -19 -72 -39 -82 -9 -4 -113 -10 -231 -13 -211 -5 -216 -6 -273 -33 -85 -42 -111 -86 -116 -195 -4 -105 14 -155 74 -211 72 -66 106 -72 431 -69 l 279 3 0 80 0 80 -287 3 -286 2 -26 31 c -35 41 -34 83 3 120 l 29 29 212 0 c 234 0 255 5 328 74 52 49 62 75 62 171 0 126 -38 188 -145 237 -48 22 -60 23 -305 23 -140 0 -280 -2 -310 -5 z "></path><path id="p18UqniDlI" d="M 5850 3204 c -6 -15 -10 -77 -8 -138 l 2 -111 -152 -215 c -84 -118 -175 -246 -203 -284 -27 -38 -46 -72 -42 -77 4 -4 51 -5 103 -2 l 96 6 124 168 c 68 92 130 179 139 193 9 14 18 26 21 26 3 0 23 -28 45 -62 22 -35 84 -125 138 -200 l 98 -138 94 0 c 52 0 96 4 99 8 3 5 -22 47 -55 93 -33 46 -122 172 -197 279 l -137 195 -5 140 -5 140 -73 3 c -70 3 -72 2 -82 -24 z "></path><path id="pti0HwgdO" d="M 6823 3224 c -10 -4 -13 -95 -13 -407 0 -221 4 -407 8 -413 13 -20 50 -34 89 -34 38 0 45 7 294 271 140 150 260 280 267 290 31 45 34 20 26 -265 l -7 -284 29 -5 c 16 -2 45 -3 64 -2 19 2 47 3 63 4 l 27 1 0 403 0 404 -23 21 c -18 17 -36 22 -74 22 l -51 0 -128 -137 c -268 -289 -397 -423 -405 -423 -5 0 -10 125 -11 278 l -3 277 -70 2 c -38 1 -76 -1 -82 -3 z "></path><path id="pRfwNJx8G" d="M 8467 3224 c -4 -4 -7 -159 -7 -345 l 0 -339 -167 -2 -168 -3 0 -80 0 -80 420 0 420 0 3 74 c 2 53 -1 77 -10 82 -7 5 -86 9 -175 9 l -163 0 -2 343 -3 342 -70 3 c -39 1 -74 0 -78 -4 z "></path><path id="puMBb9eBj" d="M 9440 3224 c -13 -4 -15 -58 -12 -422 l 2 -417 80 -3 80 -3 0 171 0 170 261 0 262 0 -8 -164 c -8 -193 -10 -189 103 -184 l 67 3 0 53 c -1 28 -2 218 -3 421 l -2 369 -62 4 c -118 6 -108 22 -108 -173 l 0 -169 -244 0 c -157 0 -247 4 -251 10 -4 6 -6 82 -6 169 l 1 158 -31 7 c -34 6 -104 6 -129 0 z "></path><path id="pRcJweobI" d="M 1409 3036 c -67 -45 -189 -152 -189 -166 0 -4 34 -10 76 -13 l 76 -6 62 47 c 34 26 72 54 84 62 l 23 15 -22 53 c -12 28 -27 52 -33 52 -6 0 -41 -20 -77 -44 z "></path><path id="p2pYqlRjm" d="M 1007 2414 c -3 -5 -11 -47 -17 -93 -44 -299 100 -652 347 -853 68 -56 180 -124 188 -116 3 3 -6 27 -19 54 -13 27 -29 67 -37 89 -8 24 -37 62 -70 95 -167 163 -268 367 -285 572 -6 77 -12 95 -54 173 -26 48 -50 83 -53 79 z "></path><path id="p1DDV9HFF3" d="M 4676 2092 c -3 -5 -6 -203 -7 -440 l -2 -432 -202 0 c -112 0 -210 -3 -219 -6 -13 -5 -16 -25 -16 -115 l 0 -109 553 2 552 3 3 99 c 2 64 -1 103 -9 112 -9 11 -54 14 -225 14 l -214 0 0 440 0 440 -104 0 c -58 0 -107 -4 -110 -8 z "></path><path id="pVtvbJnfK" d="M 5515 2090 c -5 -9 -10 -787 -6 -1032 l 1 -68 499 0 c 446 0 500 2 505 16 10 26 7 174 -4 195 -10 18 -25 19 -395 19 l -385 0 0 110 0 110 325 0 c 375 0 345 -10 345 110 0 120 30 110 -345 110 -178 0 -326 3 -328 8 -3 4 -2 50 2 102 l 6 95 385 5 385 5 3 90 c 2 50 0 100 -3 113 l -5 22 -490 0 c -323 0 -491 -3 -495 -10 z "></path><path id="p1EqrgR6sl" d="M 6714 2092 c -7 -4 -13 -49 -15 -112 l -4 -105 380 -5 c 377 -5 380 -5 412 -28 58 -41 57 -127 0 -162 -29 -18 -52 -20 -263 -20 -246 0 -311 -7 -380 -42 -113 -56 -163 -135 -171 -272 -5 -79 -4 -89 25 -149 37 -80 96 -141 171 -176 l 56 -26 398 -3 397 -3 0 110 c 0 104 -1 109 -22 115 -13 3 -184 6 -380 6 l -356 0 -31 31 c -56 56 -33 154 42 178 22 8 121 10 278 9 234 -3 246 -2 301 20 77 31 149 98 178 164 34 76 33 194 -2 269 -33 71 -75 119 -136 152 -94 51 -146 57 -522 57 -190 0 -350 -4 -356 -8 z "></path><path id="pOcfQx1yF" d="M 7957 2081 c -2 -10 -4 -137 -2 -282 1 -145 3 -387 3 -536 l 2 -273 110 0 c 80 0 110 3 112 13 1 6 2 202 2 435 l 1 423 390 4 c 215 2 393 4 398 4 11 1 8 190 -3 212 -10 18 -27 19 -509 19 -479 0 -499 -1 -504 -19 z "></path><path id="p1F3Cdk3vj" d="M 9116 2068 c -4 -18 -4 -172 -1 -343 6 -262 9 -320 25 -375 36 -124 141 -250 253 -304 98 -48 143 -53 459 -57 287 -4 297 -3 324 17 47 35 54 90 60 479 3 193 2 410 -1 483 l -7 132 -109 0 -109 0 0 -135 0 -135 -340 0 -340 0 0 135 0 135 -104 0 -103 0 -7 -32 z  m 896 -645 c -1 -98 -5 -184 -7 -192 -4 -11 -43 -13 -218 -8 -242 5 -277 13 -352 79 -70 61 -92 108 -99 211 l -7 87 343 0 343 0 -3 -177 z "></path><path id="pxtLbpzRR" d="M 2810 1829 c -56 -109 -150 -218 -261 -300 l -68 -50 21 -47 c 11 -26 24 -51 29 -56 15 -17 176 101 241 177 89 103 201 288 184 304 -2 3 -31 7 -64 10 l -60 6 -22 -44 z "></path></g></g></svg>
